<svg xmlns="http://www.w3.org/2000/svg" viewBox="0 0 64 64" role="img" aria-label="SpeedGame">
  <defs>
    <linearGradient id="bg" x1="0" y1="0" x2="1" y2="1">
      <stop stop-color="#343127"/>
      <stop offset="1" stop-color="#111510"/>
    </linearGradient>
    <linearGradient id="card" x1="0" y1="0" x2="1" y2="1">
      <stop stop-color="#f7edcf"/>
      <stop offset="1" stop-color="#e8d9b8"/>
    </linearGradient>
  </defs>
  <rect width="64" height="64" rx="12" fill="url(#bg)"/>
  <path d="M8 18h48M8 46h48" stroke="#a47a3d" stroke-width="2" opacity=".75"/>
  <circle cx="10" cy="10" r="2" fill="#d0ae67"/>
  <circle cx="54" cy="54" r="2" fill="#d0ae67"/>
  <rect x="13" y="11" width="27" height="39" rx="4" fill="#171b17" stroke="#3d756f" stroke-width="2" transform="rotate(-8 26.5 30.5)"/>
  <rect x="24" y="14" width="27" height="39" rx="4" fill="url(#card)" stroke="#a64034" stroke-width="2" transform="rotate(7 37.5 33.5)"/>
  <path d="M36 25c5-7 13 0 0 12-13-12-5-19 0-12Z" fill="#9f2730"/>
  <path d="M17 25l15 15M32 25L17 40" stroke="#d0ae67" stroke-width="2" opacity=".55"/>
</svg>
